<?xml version="1.0" encoding="utf-8"?>
<!-- Generator: Adobe Illustrator 16.0.0, SVG Export Plug-In . SVG Version: 6.00 Build 0)  -->
<!DOCTYPE svg PUBLIC "-//W3C//DTD SVG 1.1//EN" "http://www.w3.org/Graphics/SVG/1.1/DTD/svg11.dtd">
<svg version="1.1" id="Layer_1" xmlns="http://www.w3.org/2000/svg" xmlns:xlink="http://www.w3.org/1999/xlink" x="0px" y="0px"
	 width="32.125px" height="64px" viewBox="0 -16 32.125 64" enable-background="new 0 -16 32.125 64" xml:space="preserve">
<path fill="#AFAFAF" d="M26.656,4.72c-1.44,0.721-1.84,1.36-1.521,2.961c0.319,1.68,0.72,3.439,1.04,5.119c0.08,0.32,0,0.721,0,1.04
	c-0.48-0.079-1.12,0-1.52-0.239c-0.961-0.561-1.84-1.36-2.881-2c-1.84-1.121-3.68-2.16-5.84-2.4c-0.4-0.08-0.8,0-1.12,0.16
	c-2.48,1.359-4.96,2.72-7.36,4.16c-0.56,0.319-1.04,0.399-1.44,0c-0.24-0.24-0.16-0.721-0.16-1.121c0.48-2.879,1.04-5.84,1.6-8.719
	c0.08-0.561,0-0.961-0.48-1.361c-2.24-2-4.4-3.919-6.56-6c-0.24-0.16-0.48-0.64-0.4-0.8c0.08-0.24,0.48-0.48,0.8-0.48
	c2.96-0.4,5.84-0.8,8.8-1.2c0.56-0.08,0.88-0.32,1.12-0.8c1.6-2.8,3.2-5.6,4.8-8.4c0.16-0.24,0.4-0.4,0.56-0.64
	c0.24,0.24,0.48,0.4,0.561,0.64c1.359,2.8,2.719,5.68,4,8.56c0.239,0.56,0.64,0.88,1.279,0.88c3.12,0.24,6.16,0.56,9.28,0.88
	c0.239,0,0.479,0.24,0.72,0.32c-0.16,0.24-0.24,0.56-0.4,0.72c-2.08,2.08-4.239,4.16-6.319,6.24c-0.479,0.479-0.8,1.28-1.36,2.159
	c-2.88-0.239-6.08-0.479-9.52-0.719c3.28-2.32,6.401-4.561,9.68-6.96c-5.84-1.52-11.44-1.2-17.04-0.08c0,0.08,0,0.24,0,0.32
	c3.84,0.24,7.68,0.56,11.521,0.8c0.08,0.08,0.08,0.16,0.16,0.24c-0.24,0.24-0.48,0.48-0.801,0.64c-2.8,1.839-5.6,3.6-8.32,5.44
	c-0.32,0.239-0.64,0.479-0.96,0.8C14.816,6,20.736,5.28,26.656,4.72z"/>
<path fill="#3582FF" d="M26.846,36.88c-1.44,0.721-1.84,1.36-1.521,2.961c0.319,1.68,0.72,3.439,1.04,5.119
	c0.08,0.32,0,0.721,0,1.04c-0.48-0.079-1.12,0-1.52-0.239c-0.961-0.561-1.84-1.36-2.881-2c-1.84-1.121-3.68-2.16-5.84-2.4
	c-0.4-0.08-0.8,0-1.119,0.16c-2.48,1.359-4.961,2.72-7.361,4.16c-0.56,0.319-1.04,0.399-1.44,0c-0.24-0.24-0.16-0.721-0.16-1.121
	c0.48-2.879,1.04-5.84,1.6-8.719c0.08-0.561,0-0.961-0.48-1.361c-2.24-2-4.4-3.92-6.56-6c-0.24-0.159-0.48-0.639-0.4-0.799
	c0.08-0.24,0.48-0.48,0.8-0.48c2.96-0.4,5.84-0.8,8.8-1.2c0.56-0.079,0.88-0.319,1.12-0.8c1.6-2.8,3.2-5.6,4.799-8.4
	c0.16-0.24,0.4-0.399,0.561-0.64c0.24,0.24,0.48,0.399,0.561,0.64c1.359,2.801,2.719,5.68,4,8.561c0.239,0.561,0.64,0.88,1.279,0.88
	c3.12,0.239,6.16,0.56,9.28,0.88c0.239,0,0.479,0.24,0.72,0.32c-0.16,0.24-0.24,0.56-0.4,0.72c-2.08,2.08-4.239,4.16-6.319,6.24
	c-0.479,0.479-0.8,1.28-1.36,2.159c-2.88-0.239-6.08-0.479-9.52-0.719c3.28-2.32,6.401-4.561,9.68-6.961
	c-5.84-1.52-11.44-1.199-17.04-0.08c0,0.08,0,0.24,0,0.32c3.84,0.24,7.681,0.561,11.521,0.801c0.08,0.079,0.08,0.159,0.16,0.239
	c-0.24,0.24-0.48,0.479-0.801,0.64c-2.8,1.84-5.6,3.601-8.32,5.44c-0.32,0.239-0.64,0.479-0.96,0.8
	C15.006,38.16,20.926,37.44,26.846,36.88z"/>
</svg>
