<?xml version="1.0" encoding="utf-8"?>
<!-- Generator: Adobe Illustrator 16.0.0, SVG Export Plug-In . SVG Version: 6.00 Build 0)  -->
<!DOCTYPE svg PUBLIC "-//W3C//DTD SVG 1.1//EN" "http://www.w3.org/Graphics/SVG/1.1/DTD/svg11.dtd">
<svg version="1.1" id="Layer_1" xmlns="http://www.w3.org/2000/svg" xmlns:xlink="http://www.w3.org/1999/xlink" x="0px" y="0px"
	 width="32px" height="64px" viewBox="0 -16 32 64" enable-background="new 0 -16 32 64" xml:space="preserve">
<path fill="#AFAFAF" d="M31.389,1.278c-0.813-1.841-2.345-3.302-4.123-4.202c-3.139-1.589-7.041-1.58-10.172,0.04
	c-2.175,1.116-3.991,3.116-4.506,5.549c-0.424,1.793-0.044,3.723,0.907,5.281c1.415,2.35,3.972,3.85,6.628,4.332
	c1.924,0.391,3.914,0.158,5.783-0.381c1.123,0.436,2.123,1.139,3.211,1.662c-0.281-0.941-0.581-1.875-0.901-2.803
	c1.222-0.867,2.328-1.949,2.992-3.307C32.2,5.564,32.26,3.223,31.389,1.278z M18.156-11.344c-3.327-1.872-7.47-2.153-11.048-0.86
	c-2.352,0.847-4.48,2.42-5.794,4.56C0.12-5.711-0.327-3.3,0.248-1.088c0.577,2.454,2.281,4.511,4.349,5.884
	c-0.4,1.134-0.78,2.266-1.14,3.407c1.3-0.681,2.6-1.392,3.901-2.081c1.56,0.5,3.22,0.744,4.88,0.689
	c-0.432-1.264-0.548-2.614-0.34-3.934c0.3-1.828,1.3-3.5,2.659-4.739c2.302-2.153,5.562-3.062,8.662-2.842
	c-0.582-2.847-2.582-5.252-5.099-6.64h0.036V-11.344z M20.467,1.975c-0.279,0.869-1.541,1.13-2.153,0.469
	c-0.675-0.611-0.412-1.891,0.474-2.164C19.766-0.134,20.896,0.996,20.467,1.975z M26.859,2.097c-0.341,0.781-1.521,0.964-2.101,0.36
	c-0.278-0.255-0.36-0.639-0.459-0.974c0.139-0.61,0.56-1.244,1.24-1.273c0.94-0.131,1.781,1.03,1.3,1.888L26.859,2.097L26.859,2.097
	z M17.32-6.508c0.01,1.281-1.7,2.082-2.66,1.212c-0.996-0.713-0.713-2.449,0.456-2.808c1.046-0.42,2.284,0.458,2.201,1.58
	L17.32-6.508z M9.241-6.183C9.012-5.069,7.52-4.532,6.646-5.279C5.635-5.992,5.918-7.76,7.106-8.12
	C8.271-8.568,9.593-7.387,9.241-6.183z"/>
<path fill="#19A853" d="M31.389,31.719c-0.813-1.841-2.345-3.303-4.123-4.202c-3.139-1.589-7.041-1.58-10.172,0.04
	c-2.175,1.116-3.991,3.116-4.506,5.549c-0.424,1.793-0.044,3.723,0.907,5.281c1.415,2.35,3.972,3.85,6.628,4.332
	c1.924,0.391,3.914,0.158,5.783-0.381c1.123,0.436,2.123,1.139,3.211,1.662c-0.281-0.941-0.581-1.875-0.901-2.803
	c1.222-0.867,2.328-1.949,2.992-3.307C32.2,36.005,32.26,33.664,31.389,31.719z M18.156,19.097c-3.327-1.872-7.47-2.153-11.048-0.86
	c-2.352,0.848-4.48,2.42-5.794,4.561c-1.193,1.934-1.64,4.344-1.065,6.556c0.577,2.454,2.281,4.511,4.349,5.884
	c-0.4,1.134-0.78,2.266-1.14,3.407c1.3-0.681,2.6-1.392,3.901-2.081c1.56,0.5,3.22,0.744,4.88,0.689
	c-0.432-1.264-0.548-2.614-0.34-3.934c0.3-1.828,1.3-3.5,2.659-4.738c2.302-2.154,5.562-3.063,8.662-2.842
	c-0.582-2.848-2.582-5.252-5.099-6.641L18.156,19.097L18.156,19.097z M20.467,32.416c-0.279,0.869-1.541,1.13-2.153,0.469
	c-0.675-0.611-0.412-1.891,0.474-2.164C19.766,30.307,20.896,31.437,20.467,32.416z M26.859,32.538
	c-0.341,0.781-1.521,0.964-2.101,0.36c-0.278-0.255-0.36-0.639-0.459-0.974c0.139-0.61,0.56-1.244,1.24-1.273
	c0.94-0.131,1.781,1.03,1.3,1.888L26.859,32.538L26.859,32.538z M17.32,23.933c0.01,1.281-1.7,2.081-2.66,1.212
	c-0.996-0.713-0.713-2.449,0.456-2.808c1.046-0.421,2.284,0.458,2.201,1.579L17.32,23.933z M9.241,24.258
	c-0.229,1.113-1.721,1.65-2.595,0.904c-1.012-0.713-0.728-2.481,0.46-2.842C8.271,21.873,9.593,23.055,9.241,24.258z"/>
</svg>
