<?xml version="1.0" encoding="utf-8"?>
<!-- Generator: Adobe Illustrator 16.0.0, SVG Export Plug-In . SVG Version: 6.00 Build 0)  -->
<!DOCTYPE svg PUBLIC "-//W3C//DTD SVG 1.1//EN" "http://www.w3.org/Graphics/SVG/1.1/DTD/svg11.dtd">
<svg version="1.1" id="Layer_1" xmlns="http://www.w3.org/2000/svg" xmlns:xlink="http://www.w3.org/1999/xlink" x="0px" y="0px"
	 width="32px" height="64px" viewBox="0 -16 32 64" enable-background="new 0 -16 32 64" xml:space="preserve">
<path fill="#AFAFAF" d="M12.054,5.93c0.25-0.405,0.315-0.816,0.196-1.232c-0.119-0.417-0.387-0.715-0.804-0.893
	c-0.404-0.168-0.839-0.174-1.304-0.019C9.677,3.941,9.32,4.215,9.071,4.607C8.809,5.012,8.731,5.42,8.839,5.83
	s0.363,0.711,0.768,0.902c0.405,0.19,0.848,0.205,1.33,0.045C11.419,6.616,11.791,6.334,12.054,5.93L12.054,5.93z M13.732,3.768
	c0.095-0.154,0.116-0.313,0.063-0.473s-0.158-0.271-0.313-0.33c-0.167-0.059-0.336-0.057-0.509,0.01
	c-0.173,0.064-0.301,0.175-0.384,0.33c-0.203,0.369-0.125,0.637,0.232,0.803c0.167,0.061,0.339,0.057,0.518-0.008
	c0.179-0.066,0.31-0.176,0.393-0.33V3.768z M16.839,5.68c-0.536,1.213-1.476,2.106-2.821,2.678c-1.345,0.572-2.678,0.645-4,0.215
	c-1.274-0.404-2.152-1.158-2.634-2.26C6.902,5.211,6.94,4.096,7.5,2.965c0.56-1.107,1.461-1.935,2.705-2.482
	c1.244-0.547,2.497-0.66,3.759-0.338c1.321,0.345,2.265,1.057,2.83,2.133C17.359,3.355,17.375,4.489,16.839,5.68L16.839,5.68z
	 M22.411,2.82c-0.107-1.143-0.638-2.154-1.589-3.035c-0.952-0.881-2.193-1.53-3.723-1.946c-1.531-0.416-3.165-0.541-4.903-0.375
	C9.542-2.262,7.343-1.419,5.599-0.009C3.855,1.402,3.066,2.977,3.233,4.714C3.34,5.857,3.87,6.869,4.822,7.75
	c0.952,0.881,2.193,1.529,3.723,1.945c1.53,0.416,3.164,0.541,4.902,0.375c2.655-0.273,4.854-1.115,6.598-2.526
	S22.578,4.559,22.411,2.82z M27.911,2.893c0,0.81-0.221,1.641-0.661,2.491c-0.44,0.852-1.09,1.667-1.945,2.446
	c-0.857,0.779-1.86,1.479-3.01,2.098s-2.494,1.113-4.036,1.482c-1.541,0.369-3.151,0.553-4.83,0.554s-3.316-0.198-4.911-0.598
	s-3.027-0.953-4.295-1.661S1.934,8.098,1.16,7.009s-1.161-2.276-1.161-3.563c0-1.369,0.414-2.827,1.241-4.375
	c0.827-1.547,2.003-3.083,3.527-4.607c2.012-2.012,4.044-3.417,6.098-4.214c2.053-0.797,3.521-0.756,4.402,0.125
	c0.774,0.762,0.893,2.006,0.357,3.732c-0.047,0.167-0.053,0.286-0.018,0.357s0.095,0.113,0.179,0.125
	c0.084,0.012,0.17,0.009,0.259-0.009c0.089-0.018,0.169-0.039,0.241-0.063l0.107-0.036c1.655-0.703,3.12-1.054,4.393-1.054
	s2.185,0.363,2.732,1.089c0.535,0.75,0.535,1.81,0,3.179c-0.024,0.155-0.051,0.274-0.08,0.357c-0.029,0.083-0.003,0.157,0.08,0.223
	c0.082,0.065,0.153,0.11,0.213,0.134c0.061,0.024,0.162,0.06,0.305,0.107c0.679,0.214,1.291,0.494,1.839,0.839
	s1.023,0.831,1.429,1.456c0.406,0.624,0.607,1.317,0.607,2.08L27.911,2.893z M26.589-8.25c0.5,0.559,0.825,1.206,0.974,1.938
	s0.109,1.432-0.117,2.098c-0.095,0.274-0.271,0.476-0.526,0.607s-0.521,0.154-0.795,0.071c-0.274-0.095-0.477-0.271-0.606-0.527
	c-0.131-0.256-0.154-0.521-0.072-0.795c0.238-0.75,0.096-1.411-0.428-1.982c-0.524-0.571-1.162-0.78-1.912-0.625
	c-0.285,0.059-0.554,0.012-0.804-0.143s-0.398-0.375-0.446-0.661c-0.059-0.286-0.012-0.551,0.144-0.795s0.375-0.396,0.661-0.455
	c0.714-0.155,1.422-0.122,2.125,0.098C25.488-9.201,26.089-8.811,26.589-8.25L26.589-8.25z M29.82-11.161
	c1.037,1.143,1.707,2.467,2.01,3.973s0.223,2.944-0.241,4.313c-0.107,0.321-0.31,0.559-0.606,0.714
	c-0.298,0.155-0.607,0.178-0.93,0.071c-0.322-0.107-0.56-0.31-0.714-0.607c-0.153-0.297-0.184-0.607-0.089-0.929
	c0.334-0.976,0.393-2,0.18-3.071C29.215-7.768,28.738-8.708,28-9.518c-0.738-0.821-1.619-1.39-2.643-1.705
	c-1.024-0.315-2.055-0.366-3.09-0.152c-0.333,0.071-0.643,0.015-0.929-0.17s-0.464-0.444-0.536-0.777
	c-0.071-0.333-0.014-0.64,0.17-0.92c0.186-0.28,0.443-0.456,0.777-0.527c1.464-0.309,2.916-0.241,4.357,0.205
	C27.548-13.118,28.785-12.317,29.82-11.161L29.82-11.161z"/>
<path fill="#FFAD16" d="M13.054,37.889c0.25-0.405,0.315-0.816,0.196-1.232c-0.119-0.417-0.387-0.715-0.804-0.893
	c-0.404-0.168-0.839-0.174-1.304-0.019c-0.465,0.155-0.822,0.429-1.071,0.821c-0.262,0.404-0.339,0.813-0.232,1.223
	s0.363,0.711,0.768,0.902c0.405,0.19,0.848,0.205,1.33,0.045C12.419,38.575,12.791,38.293,13.054,37.889L13.054,37.889z
	 M14.732,35.727c0.095-0.154,0.116-0.313,0.063-0.473s-0.158-0.271-0.313-0.33c-0.167-0.059-0.336-0.057-0.509,0.01
	c-0.173,0.064-0.301,0.175-0.384,0.33c-0.203,0.369-0.125,0.637,0.232,0.803c0.167,0.061,0.339,0.057,0.518-0.008
	c0.179-0.066,0.31-0.176,0.393-0.33V35.727z M17.839,37.639c-0.536,1.213-1.476,2.106-2.821,2.678c-1.345,0.572-2.678,0.645-4,0.215
	c-1.274-0.404-2.152-1.158-2.634-2.26C7.902,37.17,7.94,36.055,8.5,34.924c0.56-1.107,1.461-1.935,2.705-2.482
	c1.244-0.547,2.497-0.66,3.759-0.338c1.321,0.345,2.265,1.057,2.83,2.133C18.359,35.314,18.375,36.448,17.839,37.639L17.839,37.639z
	 M23.411,34.779c-0.107-1.143-0.638-2.154-1.589-3.035c-0.952-0.881-2.193-1.53-3.723-1.946c-1.531-0.416-3.165-0.541-4.903-0.375
	c-2.654,0.274-4.854,1.116-6.598,2.527c-1.744,1.411-2.533,2.985-2.366,4.723c0.107,1.144,0.637,2.155,1.589,3.036
	c0.952,0.881,2.193,1.529,3.723,1.945c1.53,0.416,3.164,0.541,4.902,0.375c2.655-0.273,4.854-1.115,6.598-2.526
	S23.578,36.518,23.411,34.779z M28.911,34.852c0,0.81-0.221,1.641-0.661,2.491c-0.44,0.852-1.09,1.667-1.945,2.446
	c-0.857,0.779-1.86,1.479-3.01,2.098S20.801,43,19.259,43.369c-1.541,0.369-3.151,0.553-4.83,0.554s-3.316-0.198-4.911-0.598
	s-3.027-0.953-4.295-1.661s-2.289-1.607-3.063-2.696s-1.161-2.276-1.161-3.563c0-1.369,0.414-2.827,1.241-4.375
	c0.827-1.547,2.003-3.082,3.527-4.606c2.012-2.012,4.044-3.417,6.098-4.214c2.053-0.797,3.521-0.756,4.402,0.125
	c0.774,0.762,0.893,2.006,0.357,3.732c-0.048,0.166-0.054,0.285-0.019,0.356s0.096,0.113,0.18,0.125
	c0.084,0.013,0.17,0.009,0.259-0.009s0.169-0.039,0.241-0.063l0.107-0.037c1.654-0.702,3.119-1.053,4.393-1.053
	s2.185,0.362,2.732,1.088c0.535,0.75,0.535,1.811,0,3.18c-0.024,0.154-0.051,0.273-0.08,0.357c-0.029,0.082-0.003,0.156,0.08,0.223
	c0.082,0.064,0.153,0.109,0.213,0.134c0.061,0.024,0.162,0.06,0.305,0.106c0.679,0.215,1.291,0.494,1.839,0.84
	c0.548,0.345,1.023,0.83,1.429,1.455c0.406,0.624,0.607,1.317,0.607,2.08L28.911,34.852z M27.589,23.709
	c0.5,0.559,0.825,1.205,0.974,1.938s0.109,1.433-0.117,2.099c-0.095,0.274-0.271,0.476-0.526,0.606s-0.521,0.154-0.795,0.071
	c-0.274-0.095-0.477-0.271-0.606-0.526c-0.131-0.256-0.154-0.521-0.072-0.795c0.238-0.75,0.096-1.411-0.428-1.982
	c-0.524-0.571-1.162-0.779-1.912-0.625c-0.285,0.059-0.554,0.012-0.804-0.143c-0.25-0.155-0.398-0.375-0.446-0.662
	c-0.059-0.285-0.012-0.551,0.144-0.795s0.375-0.395,0.661-0.455c0.714-0.154,1.422-0.121,2.125,0.099S27.089,23.148,27.589,23.709
	L27.589,23.709z M30.82,20.798c1.037,1.144,1.707,2.468,2.01,3.974s0.223,2.943-0.241,4.313c-0.107,0.321-0.31,0.559-0.606,0.714
	c-0.298,0.155-0.607,0.179-0.93,0.071s-0.56-0.311-0.714-0.607c-0.153-0.297-0.184-0.607-0.089-0.929
	c0.334-0.976,0.393-1.999,0.18-3.071c-0.215-1.07-0.691-2.012-1.43-2.82c-0.738-0.822-1.619-1.391-2.643-1.705
	c-1.024-0.316-2.055-0.366-3.09-0.152c-0.333,0.071-0.643,0.015-0.929-0.17s-0.464-0.443-0.536-0.777
	c-0.071-0.333-0.014-0.64,0.17-0.92c0.186-0.279,0.443-0.455,0.777-0.527c1.464-0.309,2.916-0.24,4.357,0.205
	C28.548,18.841,29.785,19.642,30.82,20.798L30.82,20.798z"/>
</svg>
