<?xml version="1.0" encoding="utf-8"?>
<!-- Generator: Adobe Illustrator 16.0.0, SVG Export Plug-In . SVG Version: 6.00 Build 0)  -->
<!DOCTYPE svg PUBLIC "-//W3C//DTD SVG 1.1//EN" "http://www.w3.org/Graphics/SVG/1.1/DTD/svg11.dtd">
<svg version="1.1" id="Layer_1" xmlns="http://www.w3.org/2000/svg" xmlns:xlink="http://www.w3.org/1999/xlink" x="0px" y="0px"
	 width="32px" height="64px" viewBox="0 -16 32 64" enable-background="new 0 -16 32 64" xml:space="preserve">
<path fill="#AFAFAF" d="M29.805-0.245c0-7.683-6.229-13.91-13.911-13.91c-7.683,0-13.911,6.228-13.911,13.91
	c0,6.591,4.585,12.113,10.741,13.548c0.607,0.188,1.26,0.348,1.903,0.426c5.372,0.656,9.378-0.063,11.809-1.049
	c0,0-1.289-0.366-2.929-1.281C27.3,8.915,29.805,4.628,29.805-0.245z M22.134,1.8c-0.255,0.76-0.704,1.787-1.465,2.779
	c-2.985,3.895-7.955,6.342-15.591,3.818c0,0,3.744,1.07,6.85-3.193c-2.013-1.211-3.356-3.392-3.356-5.88
	c0-3.806,3.141-6.891,7.015-6.891s7.015,3.085,7.015,6.891C22.602,0.196,22.436,1.031,22.134,1.8z"/>
<path fill="#19A853" d="M29.82,31.772c0-7.682-6.229-13.91-13.909-13.91C8.228,17.862,2,24.091,2,31.772
	c0,6.593,4.585,12.113,10.741,13.549c0.607,0.188,1.26,0.348,1.903,0.426c5.372,0.656,9.377-0.063,11.808-1.049
	c0,0-1.289-0.365-2.929-1.281C27.316,40.933,29.82,36.646,29.82,31.772z M22.15,33.817c-0.256,0.76-0.705,1.787-1.465,2.779
	c-2.985,3.895-7.955,6.342-15.591,3.818c0,0,3.744,1.069,6.85-3.193c-2.014-1.211-3.357-3.393-3.357-5.881
	c0-3.806,3.141-6.892,7.016-6.892c3.874,0,7.015,3.086,7.015,6.892C22.617,32.214,22.452,33.05,22.15,33.817z"/>
</svg>
